<svg width="19" height="19" viewBox="0 0 19 19" fill="none" xmlns="http://www.w3.org/2000/svg">
<rect x="2.75" y="5" width="13.5" height="11.25" rx="2" stroke="#808082"/>
<path d="M2.75 8C2.75 7.06812 2.75 6.60218 2.90224 6.23463C3.10523 5.74458 3.49458 5.35523 3.98463 5.15224C4.35218 5 4.81812 5 5.75 5H13.25C14.1819 5 14.6478 5 15.0154 5.15224C15.5054 5.35523 15.8948 5.74458 16.0978 6.23463C16.25 6.60218 16.25 7.06812 16.25 8H2.75Z" fill="#808082"/>
<path d="M5.75 2.75L5.75 5" stroke="#808082" stroke-linecap="round"/>
<path d="M13.25 2.75L13.25 5" stroke="#808082" stroke-linecap="round"/>
<rect x="5.75" y="9.5" width="3" height="1.5" rx="0.5" fill="#808082"/>
<rect x="5.75" y="12.5" width="3" height="1.5" rx="0.5" fill="#808082"/>
<rect x="10.25" y="9.5" width="3" height="1.5" rx="0.5" fill="#808082"/>
<rect x="10.25" y="12.5" width="3" height="1.5" rx="0.5" fill="#808082"/>
</svg>
