<svg width="19" height="19" viewBox="0 0 19 19" fill="none" xmlns="http://www.w3.org/2000/svg">
<path d="M10.8221 2.65194L10.3238 2.69457L10.3246 2.70169L10.8221 2.65194ZM10.8221 2.65187L11.3203 2.60924L11.3196 2.60212L10.8221 2.65187ZM10.8716 3.04246L10.3864 3.16328V3.16329L10.8716 3.04246ZM12.3572 3.65783L12.0996 3.22932L12.0996 3.22932L12.3572 3.65783ZM12.6684 3.41671L12.985 3.80369L12.985 3.80368L12.6684 3.41671ZM12.8413 3.28146L12.5643 2.86522V2.86522L12.8413 3.28146ZM14.0295 3.34072L13.7125 3.72733L13.7125 3.72733L14.0295 3.34072ZM14.1882 3.49251L13.8346 3.84606L13.8346 3.84606L14.1882 3.49251ZM14.8583 4.16261L14.5047 4.51616L14.5047 4.51616L14.8583 4.16261ZM15.0101 4.32126L14.6235 4.63833L14.6235 4.63833L15.0101 4.32126ZM15.0693 5.50947L14.6531 5.23244L14.6531 5.23244L15.0693 5.50947ZM14.9341 5.68244L15.3211 5.99905L15.3211 5.99905L14.9341 5.68244ZM14.6929 5.9936L15.1215 6.25124V6.25124L14.6929 5.9936ZM15.3083 7.47923L15.1875 7.96441L15.3083 7.47923ZM15.6989 7.52875L15.6491 8.02627L15.6562 8.02697L15.6632 8.02748L15.6989 7.52875ZM15.6989 7.52875L15.7487 7.03123L15.7416 7.03053L15.7345 7.03002L15.6989 7.52875ZM15.9169 7.55542L15.8184 8.04563L15.8184 8.04563L15.9169 7.55542ZM16.7151 8.4375L17.2127 8.38833L17.2127 8.38833L16.7151 8.4375ZM16.7151 9.82414L16.2176 9.775V9.77501L16.7151 9.82414ZM15.9168 10.7063L15.8184 10.2161L15.8184 10.2161L15.9168 10.7063ZM15.6989 10.733L15.7487 11.2305H15.7487L15.6989 10.733ZM15.3087 10.7824L15.188 10.2972L15.188 10.2972L15.3087 10.7824ZM14.6933 12.2682L14.2648 12.5259H14.2648L14.6933 12.2682ZM14.9342 12.579L14.5472 12.8957L14.5501 12.8991L14.9342 12.579ZM14.9342 12.5791L14.5501 12.8992L14.5546 12.9044L14.9342 12.5791ZM14.9342 12.5791L15.3213 12.2624L15.3139 12.2537L14.9342 12.5791ZM15.0693 12.7518L15.4855 12.4748L15.4855 12.4748L15.0693 12.7518ZM15.0101 13.9402L15.3966 14.2573L15.3966 14.2573L15.0101 13.9402ZM14.0296 14.9207L14.3467 15.3073L14.3467 15.3073L14.0296 14.9207ZM12.8414 14.9799L13.1184 14.5637L13.1184 14.5637L12.8414 14.9799ZM12.6684 14.8447L12.3518 15.2317L12.6684 14.8447ZM12.3573 14.6036L12.6149 14.175L12.6149 14.175L12.3573 14.6036ZM10.8716 15.2189L11.3568 15.3398L11.3568 15.3398L10.8716 15.2189ZM10.8221 15.6096L10.3246 15.5598V15.5598L10.8221 15.6096ZM10.7954 15.8278L11.2856 15.9263L11.2856 15.9263L10.7954 15.8278ZM9.91341 16.626L9.96262 17.1236L9.96262 17.1236L9.91341 16.626ZM8.52661 16.626L8.47744 17.1236L8.47744 17.1236L8.52661 16.626ZM7.64453 15.8277L8.13474 15.7293L7.64453 15.8277ZM7.61786 15.6098L7.11952 15.6513L7.12035 15.6596L7.61786 15.6098ZM7.61786 15.6098L8.1162 15.5682L8.11538 15.56L7.61786 15.6098ZM7.56834 15.2192L7.08316 15.34L7.08316 15.34L7.56834 15.2192ZM6.08273 14.6038L6.34035 15.0324L6.08273 14.6038ZM5.77153 14.845L6.08815 15.232H6.08815L5.77153 14.845ZM5.59853 14.9803L5.87556 15.3965L5.87556 15.3965L5.59853 14.9803ZM4.41035 14.921L4.72742 14.5344L4.72741 14.5344L4.41035 14.921ZM4.25168 14.7692L4.60523 14.4156L4.60523 14.4156L4.25168 14.7692ZM3.5816 14.0991L3.21831 14.4429L3.22804 14.4527L3.5816 14.0991ZM3.58158 14.0991L3.94486 13.7553L3.93513 13.7455L3.58158 14.0991ZM3.42979 13.9405L3.8164 13.6234L3.8164 13.6234L3.42979 13.9405ZM3.37053 12.7523L2.95429 12.4752L2.95429 12.4752L3.37053 12.7523ZM3.5058 12.5793L3.11882 12.2627L3.11882 12.2627L3.5058 12.5793ZM3.74694 12.2681L4.17545 12.5258L4.17545 12.5258L3.74694 12.2681ZM3.13157 10.7825L3.2524 10.2973L3.2524 10.2973L3.13157 10.7825ZM2.74104 10.733L2.7908 10.2354H2.7908L2.74104 10.733ZM2.5231 10.7063L2.42467 11.1965H2.42467L2.5231 10.7063ZM1.72482 9.8242L2.22239 9.77504L1.72482 9.8242ZM1.72482 8.43744L1.22725 8.38823H1.22725L1.72482 8.43744ZM2.52303 7.55543L2.42456 7.06522L2.42456 7.06522L2.52303 7.55543ZM2.74112 7.52874L2.69959 7.0304L2.69136 7.03123L2.74112 7.52874ZM2.74114 7.52874L2.78267 8.02708L2.79089 8.02626L2.74114 7.52874ZM3.13196 7.47918L3.01108 6.99402L3.01108 6.99402L3.13196 7.47918ZM3.74728 5.99367L3.31874 6.25126L3.31874 6.25126L3.74728 5.99367ZM3.50593 5.68223L3.09391 5.96549L3.10574 5.98269L3.11895 5.99885L3.50593 5.68223ZM3.50593 5.68222L3.91795 5.39896L3.90612 5.38176L3.89291 5.3656L3.50593 5.68222ZM3.37051 5.50904L3.78678 5.23205L3.78677 5.23205L3.37051 5.50904ZM3.42976 4.32101L3.04312 4.00398L3.04312 4.00398L3.42976 4.32101ZM3.58172 4.16217L3.93528 4.51573H3.93528L3.58172 4.16217ZM4.25171 3.49219L3.90314 3.13365L3.89816 3.13863L4.25171 3.49219ZM4.25172 3.49217L4.6003 3.85071L4.60528 3.84573L4.25172 3.49217ZM4.41038 3.34037L4.72745 3.72698L4.72745 3.72698L4.41038 3.34037ZM5.59857 3.28111L5.87559 2.86487L5.59857 3.28111ZM5.77162 3.41643L5.45494 3.80349L5.46271 3.80959L5.77162 3.41643ZM5.77163 3.41644L6.08831 3.02939L6.08054 3.02328L5.77163 3.41644ZM6.08265 3.65748L6.34033 3.229L6.34033 3.229L6.08265 3.65748ZM7.56841 3.04206L8.0536 3.16283L7.56841 3.04206ZM7.61787 2.65184L7.12035 2.60209V2.60209L7.61787 2.65184ZM7.64451 2.43407L8.13474 2.53247L8.13474 2.53246L7.64451 2.43407ZM8.5267 1.6357L8.47757 1.13812L8.5267 1.6357ZM9.91332 1.63571L9.86415 2.13328L9.91332 1.63571ZM10.7954 2.43399L10.3052 2.53243L10.3052 2.53243L10.7954 2.43399ZM11.3203 2.60931L11.3203 2.60925L10.3239 2.6945L10.3239 2.69456L11.3203 2.60931ZM11.3568 2.92164C11.3505 2.8963 11.3432 2.83813 11.3196 2.60219L10.3246 2.70169C10.3437 2.89287 10.3578 3.04826 10.3864 3.16328L11.3568 2.92164ZM12.0996 3.22932C11.8115 3.40253 11.438 3.24782 11.3568 2.92163L10.3864 3.16329C10.6301 4.14183 11.7506 4.60597 12.6149 4.08634L12.0996 3.22932ZM12.3518 3.02973C12.1682 3.17988 12.122 3.21587 12.0996 3.22932L12.6149 4.08634C12.7165 4.02526 12.8363 3.92535 12.985 3.80369L12.3518 3.02973ZM12.5643 2.86522C12.4977 2.90958 12.4308 2.96508 12.3518 3.02973L12.985 3.80368C13.0819 3.72441 13.103 3.70795 13.1184 3.6977L12.5643 2.86522ZM14.3466 2.95412C13.8367 2.53587 13.1133 2.4998 12.5643 2.86522L13.1184 3.6977C13.3014 3.57589 13.5425 3.58791 13.7125 3.72733L14.3466 2.95412ZM14.5417 3.13896C14.4696 3.06677 14.4085 3.00488 14.3466 2.95411L13.7125 3.72733C13.7268 3.73907 13.7461 3.75754 13.8346 3.84606L14.5417 3.13896ZM15.2118 3.80906L14.5417 3.13895L13.8346 3.84606L14.5047 4.51616L15.2118 3.80906ZM15.3967 4.00419C15.3459 3.94229 15.284 3.88125 15.2118 3.80905L14.5047 4.51616C14.5933 4.60469 14.6117 4.62402 14.6235 4.63833L15.3967 4.00419ZM15.4856 5.7865C15.851 5.23746 15.8149 4.51414 15.3967 4.00419L14.6235 4.63833C14.7629 4.80832 14.7749 5.04942 14.6531 5.23244L15.4856 5.7865ZM15.3211 5.99905C15.3857 5.92004 15.4412 5.85314 15.4856 5.78649L14.6531 5.23244C14.6429 5.24785 14.6264 5.26892 14.5471 5.36582L15.3211 5.99905ZM15.1215 6.25124C15.1349 6.22886 15.1709 6.18258 15.3211 5.99905L14.5471 5.36582C14.4254 5.51453 14.3255 5.63437 14.2644 5.73597L15.1215 6.25124ZM15.4291 6.99405C15.103 6.91282 14.9483 6.53932 15.1215 6.25124L14.2644 5.73597C13.7448 6.60021 14.209 7.72072 15.1875 7.96441L15.4291 6.99405ZM15.7486 7.03123C15.5127 7.00763 15.4545 7.00036 15.4291 6.99405L15.1875 7.96441C15.3025 7.99306 15.4579 8.00715 15.6491 8.02627L15.7486 7.03123ZM15.7345 7.03002L15.7345 7.03002L15.6632 8.02748L15.6633 8.02748L15.7345 7.03002ZM16.0153 7.06521C15.9368 7.04944 15.8502 7.04139 15.7487 7.03123L15.6491 8.02627C15.7737 8.03873 15.8003 8.04199 15.8184 8.04563L16.0153 7.06521ZM17.2127 8.38833C17.1478 7.73201 16.6619 7.19505 16.0153 7.06521L15.8184 8.04563C16.0339 8.08891 16.1959 8.2679 16.2175 8.48667L17.2127 8.38833ZM17.22 8.65704C17.22 8.55493 17.2206 8.46801 17.2127 8.38833L16.2175 8.48667C16.2194 8.5051 16.22 8.53183 16.22 8.65704H17.22ZM17.22 9.60477V8.65704H16.22V9.60477H17.22ZM17.2127 9.87328C17.2206 9.79366 17.22 9.7068 17.22 9.60477H16.22C16.22 9.72989 16.2194 9.75659 16.2176 9.775L17.2127 9.87328ZM16.0152 11.1965C16.6619 11.0667 17.1479 10.5297 17.2127 9.87328L16.2176 9.77501C16.1959 9.99381 16.0339 10.1728 15.8184 10.2161L16.0152 11.1965ZM15.7487 11.2305C15.8502 11.2203 15.9367 11.2123 16.0152 11.1965L15.8184 10.2161C15.8002 10.2197 15.7737 10.223 15.6492 10.2354L15.7487 11.2305ZM15.4295 11.2676C15.4548 11.2613 15.5129 11.2541 15.7487 11.2305L15.6492 10.2354C15.4582 10.2545 15.3029 10.2686 15.188 10.2972L15.4295 11.2676ZM15.1218 12.0105C14.9485 11.7224 15.1033 11.3488 15.4295 11.2676L15.188 10.2972C14.2092 10.5408 13.745 11.6616 14.2648 12.5259L15.1218 12.0105ZM15.3212 12.2624C15.1712 12.0791 15.1352 12.0329 15.1218 12.0105L14.2648 12.5259C14.3259 12.6274 14.4257 12.7471 14.5472 12.8957L15.3212 12.2624ZM15.3183 12.259L15.3183 12.2589L14.5501 12.8991L14.5501 12.8991L15.3183 12.259ZM15.3139 12.2537L15.3138 12.2537L14.5546 12.9044L14.5546 12.9045L15.3139 12.2537ZM15.4855 12.4748C15.4412 12.4082 15.3858 12.3414 15.3212 12.2625L14.5473 12.8957C14.6264 12.9925 14.6429 13.0135 14.6531 13.0289L15.4855 12.4748ZM15.3966 14.2573C15.815 13.7473 15.8511 13.0239 15.4855 12.4748L14.6531 13.0289C14.775 13.2119 14.7629 13.4531 14.6235 13.6231L15.3966 14.2573ZM15.212 14.4522C15.2841 14.3801 15.3459 14.3192 15.3966 14.2573L14.6235 13.6231C14.6118 13.6374 14.5933 13.6567 14.5049 13.7451L15.212 14.4522ZM14.5418 15.1224L15.212 14.4522L14.5049 13.7451L13.8347 14.4153L14.5418 15.1224ZM14.3467 15.3073C14.4086 15.2565 14.4696 15.1946 14.5418 15.1224L13.8347 14.4153C13.7461 14.5038 13.7268 14.5223 13.7125 14.5341L14.3467 15.3073ZM12.5643 15.3962C13.1134 15.7616 13.8367 15.7255 14.3467 15.3073L13.7125 14.5341C13.5425 14.6735 13.3014 14.6855 13.1184 14.5637L12.5643 15.3962ZM12.3518 15.2317C12.4308 15.2963 12.4977 15.3518 12.5643 15.3962L13.1184 14.5637C13.103 14.5534 13.0819 14.537 12.985 14.4577L12.3518 15.2317ZM12.0996 15.0321C12.122 15.0455 12.1683 15.0815 12.3518 15.2317L12.985 14.4577C12.8363 14.336 12.7165 14.2361 12.6149 14.175L12.0996 15.0321ZM11.3568 15.3398C11.438 15.0136 11.8115 14.8589 12.0996 15.0321L12.6149 14.175C11.7507 13.6554 10.6301 14.1196 10.3864 15.0981L11.3568 15.3398ZM11.3196 15.6593C11.3432 15.4233 11.3505 15.3651 11.3568 15.3398L10.3864 15.0981C10.3578 15.2131 10.3437 15.3686 10.3246 15.5598L11.3196 15.6593ZM11.2856 15.9263C11.3014 15.8477 11.3094 15.7611 11.3196 15.6593L10.3246 15.5598C10.3121 15.6846 10.3088 15.7112 10.3052 15.7293L11.2856 15.9263ZM9.96262 17.1236C10.6188 17.0587 11.1557 16.5728 11.2856 15.9263L10.3052 15.7293C10.2619 15.9448 10.0829 16.1068 9.86419 16.1284L9.96262 17.1236ZM9.69369 17.1309C9.79588 17.1309 9.88287 17.1315 9.96262 17.1236L9.8642 16.1284C9.84576 16.1303 9.819 16.1309 9.69369 16.1309V17.1309ZM8.74615 17.1309H9.69369V16.1309H8.74615V17.1309ZM8.47744 17.1236C8.55712 17.1315 8.64405 17.1309 8.74615 17.1309V16.1309C8.62094 16.1309 8.59421 16.1303 8.57578 16.1284L8.47744 17.1236ZM7.15432 15.9262C7.28416 16.5728 7.82112 17.0587 8.47744 17.1236L8.57579 16.1284C8.35701 16.1068 8.17803 15.9448 8.13474 15.7293L7.15432 15.9262ZM7.12035 15.6596C7.1305 15.7611 7.13855 15.8477 7.15432 15.9262L8.13474 15.7293C8.1311 15.7111 8.12784 15.6846 8.11538 15.5601L7.12035 15.6596ZM7.11959 15.6513L7.11959 15.6513L8.11614 15.5683L8.11613 15.5682L7.11959 15.6513ZM7.08316 15.34C7.08947 15.3654 7.09675 15.4235 7.12034 15.6595L8.11538 15.56C8.09626 15.3688 8.08217 15.2134 8.05352 15.0984L7.08316 15.34ZM6.34035 15.0324C6.62843 14.8592 7.00193 15.0139 7.08316 15.34L8.05352 15.0984C7.80982 14.1198 6.68934 13.6557 5.8251 14.1753L6.34035 15.0324ZM6.08815 15.232C6.27169 15.0818 6.31798 15.0458 6.34035 15.0324L5.8251 14.1753C5.72349 14.2364 5.60363 14.3363 5.45491 14.458L6.08815 15.232ZM5.87556 15.3965C5.94222 15.3522 6.00911 15.2966 6.08815 15.232L5.45491 14.458C5.358 14.5373 5.33692 14.5538 5.3215 14.564L5.87556 15.3965ZM4.09328 15.3076C4.60323 15.7258 5.32652 15.7619 5.87556 15.3965L5.32151 14.564C5.1385 14.6858 4.8974 14.6738 4.72742 14.5344L4.09328 15.3076ZM3.89812 15.1228C3.97032 15.195 4.03137 15.2569 4.09329 15.3076L4.72741 14.5344C4.7131 14.5227 4.69377 14.5042 4.60523 14.4156L3.89812 15.1228ZM3.22804 14.4527L3.89812 15.1228L4.60523 14.4156L3.93515 13.7456L3.22804 14.4527ZM3.21843 14.4428L3.21845 14.4428L3.94474 13.7554L3.94472 13.7554L3.21843 14.4428ZM3.04318 14.2575C3.09395 14.3194 3.15584 14.3805 3.22803 14.4527L3.93513 13.7455C3.84661 13.657 3.82814 13.6377 3.8164 13.6234L3.04318 14.2575ZM2.95429 12.4752C2.58888 13.0243 2.62495 13.7476 3.04318 14.2575L3.8164 13.6234C3.67699 13.4534 3.66497 13.2123 3.78677 13.0293L2.95429 12.4752ZM3.11882 12.2627C3.05416 12.3417 2.99865 12.4086 2.95429 12.4752L3.78677 13.0293C3.79703 13.0139 3.81349 12.9928 3.89278 12.8959L3.11882 12.2627ZM3.31843 12.0105C3.30498 12.0329 3.26898 12.0791 3.11882 12.2627L3.89278 12.8959C4.01445 12.7472 4.11437 12.6273 4.17545 12.5258L3.31843 12.0105ZM3.01074 11.2677C3.33692 11.3489 3.49163 11.7224 3.31843 12.0105L4.17545 12.5258C4.69507 11.6615 4.23094 10.541 3.2524 10.2973L3.01074 11.2677ZM2.69129 11.2305C2.92724 11.2541 2.98541 11.2613 3.01075 11.2677L3.2524 10.2973C3.13737 10.2687 2.98198 10.2546 2.7908 10.2354L2.69129 11.2305ZM2.42467 11.1965C2.50316 11.2123 2.5897 11.2203 2.69129 11.2305L2.7908 10.2354C2.66623 10.223 2.63969 10.2197 2.62154 10.2161L2.42467 11.1965ZM1.22724 9.87337C1.29209 10.5297 1.77805 11.0667 2.42467 11.1965L2.62154 10.2161C2.406 10.1728 2.24401 9.99382 2.22239 9.77504L1.22724 9.87337ZM1.21997 9.60469C1.21997 9.70678 1.21937 9.7937 1.22724 9.87337L2.22239 9.77504C2.22057 9.75661 2.21997 9.72989 2.21997 9.60469H1.21997ZM1.21997 8.65712V9.60469H2.21997V8.65712H1.21997ZM1.22725 8.38823C1.21937 8.46797 1.21997 8.55495 1.21997 8.65712H2.21997C2.21997 8.53183 2.22057 8.50508 2.2224 8.48664L1.22725 8.38823ZM2.42456 7.06522C1.77803 7.1951 1.29215 7.73199 1.22725 8.38823L2.2224 8.48664C2.24403 8.26789 2.40599 8.08893 2.6215 8.04564L2.42456 7.06522ZM2.69136 7.03123C2.58972 7.04139 2.50311 7.04945 2.42456 7.06522L2.6215 8.04564C2.63966 8.04199 2.66621 8.03873 2.79088 8.02626L2.69136 7.03123ZM2.69961 7.03047L2.6996 7.03047L2.78264 8.02702L2.78266 8.02702L2.69961 7.03047ZM3.01108 6.99402C2.98573 7.00033 2.92751 7.00761 2.69139 7.03122L2.79089 8.02626C2.98221 8.00713 3.13772 7.99303 3.25284 7.96435L3.01108 6.99402ZM3.31874 6.25126C3.49189 6.53932 3.33721 6.91276 3.01108 6.99402L3.25284 7.96435C4.23122 7.72059 4.69527 6.60027 4.17582 5.73608L3.31874 6.25126ZM3.11895 5.99885C3.26925 6.18254 3.30528 6.22887 3.31874 6.25126L4.17582 5.73608C4.1147 5.6344 4.01469 5.51445 3.89291 5.36561L3.11895 5.99885ZM3.09391 5.96549L3.09391 5.96549L3.91795 5.39896L3.91795 5.39896L3.09391 5.96549ZM2.95424 5.78602C2.99864 5.85275 3.05422 5.91972 3.11895 5.99884L3.89291 5.3656C3.81352 5.26858 3.79704 5.24748 3.78678 5.23205L2.95424 5.78602ZM3.04312 4.00398C2.62502 4.51388 2.58895 5.23704 2.95424 5.78602L3.78677 5.23205C3.66501 5.04906 3.67703 4.80801 3.8164 4.63804L3.04312 4.00398ZM3.22817 3.80862C3.1559 3.88089 3.09394 3.942 3.04312 4.00398L3.8164 4.63804C3.82815 4.6237 3.84665 4.60436 3.93528 4.51573L3.22817 3.80862ZM3.89816 3.13863L3.22817 3.80862L3.93528 4.51573L4.60526 3.84574L3.89816 3.13863ZM3.90318 3.13368L3.90317 3.13369L4.60025 3.85068L4.60026 3.85067L3.90318 3.13368ZM4.09332 2.95376C4.0314 3.00453 3.97036 3.06643 3.89817 3.13862L4.60528 3.84573C4.69381 3.75719 4.71314 3.73872 4.72745 3.72698L4.09332 2.95376ZM5.87559 2.86487C5.32656 2.49946 4.60327 2.53554 4.09332 2.95376L4.72745 3.72698C4.89743 3.58757 5.13853 3.57555 5.32154 3.69735L5.87559 2.86487ZM6.08824 3.02945C6.00917 2.96476 5.94225 2.90923 5.87559 2.86487L5.32154 3.69735C5.33696 3.70761 5.35804 3.72408 5.455 3.80341L6.08824 3.02945ZM6.08054 3.02328L6.08053 3.02327L5.46271 3.80959L5.46272 3.8096L6.08054 3.02328ZM6.34033 3.229C6.31798 3.21555 6.27171 3.17956 6.08825 3.02946L5.45501 3.80342C5.60366 3.92504 5.72345 4.02492 5.82496 4.08597L6.34033 3.229ZM7.08321 2.92129C7.00201 3.24752 6.62844 3.40226 6.34033 3.229L5.82496 4.08597C6.68927 4.60575 7.80999 4.14154 8.0536 3.16283L7.08321 2.92129ZM7.12035 2.60209C7.09678 2.83785 7.08951 2.89597 7.08321 2.92129L8.0536 3.16283C8.08221 3.04789 8.09629 2.89262 8.11539 2.70159L7.12035 2.60209ZM7.15429 2.33567C7.13855 2.4141 7.1305 2.50058 7.12035 2.60209L8.11539 2.70159C8.12784 2.57711 8.13109 2.5506 8.13474 2.53247L7.15429 2.33567ZM8.47757 1.13812C7.82115 1.20293 7.2841 1.68896 7.15429 2.33567L8.13474 2.53246C8.178 2.31689 8.35702 2.15488 8.57583 2.13328L8.47757 1.13812ZM8.74604 1.13086C8.64403 1.13086 8.55718 1.13026 8.47757 1.13812L8.57583 2.13328C8.59424 2.13146 8.62095 2.13086 8.74604 2.13086V1.13086ZM9.6938 1.13086H8.74604V2.13086H9.6938V1.13086ZM9.96249 1.13813C9.88281 1.13026 9.7959 1.13086 9.6938 1.13086V2.13086C9.819 2.13086 9.84573 2.13146 9.86415 2.13328L9.96249 1.13813ZM11.2856 2.33556C11.1558 1.68894 10.6188 1.20298 9.96249 1.13813L9.86415 2.13328C10.0829 2.1549 10.2619 2.31688 10.3052 2.53243L11.2856 2.33556ZM11.3196 2.60212C11.3094 2.50057 11.3014 2.41404 11.2856 2.33555L10.3052 2.53243C10.3088 2.55057 10.3121 2.5771 10.3246 2.70163L11.3196 2.60212ZM11.72 9.13086C11.72 10.5116 10.6007 11.6309 9.21997 11.6309V12.6309C11.153 12.6309 12.72 11.0639 12.72 9.13086H11.72ZM9.21997 6.63086C10.6007 6.63086 11.72 7.75015 11.72 9.13086H12.72C12.72 7.19786 11.153 5.63086 9.21997 5.63086V6.63086ZM6.71997 9.13086C6.71997 7.75015 7.83926 6.63086 9.21997 6.63086V5.63086C7.28697 5.63086 5.71997 7.19786 5.71997 9.13086H6.71997ZM9.21997 11.6309C7.83926 11.6309 6.71997 10.5116 6.71997 9.13086H5.71997C5.71997 11.0639 7.28697 12.6309 9.21997 12.6309V11.6309Z" fill="#7A7978"/>
</svg>
