<svg width="19" height="19" viewBox="0 0 19 19" fill="none" xmlns="http://www.w3.org/2000/svg">
<path d="M7.64093 5.15674H10.0605M7.64093 7.9219H12.1343M7.64093 10.6871H12.1343" stroke="white" stroke-width="0.9132" stroke-linecap="round" stroke-linejoin="round"/>
<path fill-rule="evenodd" clip-rule="evenodd" d="M15.8751 11.283C15.936 10.6841 15.936 9.93407 15.936 8.98754L15.936 7.03575C15.9362 6.3113 15.9363 5.84411 15.8102 5.40194C15.7411 5.15953 15.6444 4.92589 15.5218 4.70562C15.2983 4.30384 14.9679 3.97355 14.4555 3.4614L14.3477 3.35359C13.8355 2.84123 13.5053 2.51081 13.1035 2.28728C12.8832 2.16473 12.6496 2.06795 12.4072 1.99885C11.965 1.87281 11.4978 1.87291 10.7733 1.87306L9.88723 1.87307V1.87457C9.24065 1.87844 8.6964 1.89234 8.23713 1.9421C7.58373 2.01289 7.04112 2.16122 6.57457 2.50019C6.29581 2.70272 6.05066 2.94787 5.84813 3.22663C5.63227 3.52373 5.49372 3.85168 5.40327 4.21944L4.8365 4.37131C3.08479 4.84068 2.04525 6.64122 2.51462 8.39293L4.03543 14.0687C4.5048 15.8204 6.30534 16.8599 8.05705 16.3906L12.0635 15.317C12.8286 15.112 13.4579 14.653 13.8849 14.055C14.0949 13.9818 14.2913 13.8868 14.4767 13.7629C14.8352 13.5234 15.1431 13.2155 15.3826 12.857C15.682 12.4089 15.8127 11.8966 15.8751 11.283ZM10.7816 2.91002L10.6971 2.91C9.65905 2.91002 8.9201 2.91111 8.34882 2.973C7.78364 3.03423 7.44439 3.14995 7.18407 3.33909C6.99333 3.47766 6.8256 3.64539 6.68703 3.83613C6.49789 4.09645 6.38217 4.4357 6.32094 5.00088C6.25866 5.57576 6.25795 6.32042 6.25795 7.36884V8.9588C6.25795 9.94049 6.25857 10.6377 6.31354 11.178C6.36762 11.7097 6.46999 12.0315 6.63658 12.2809C6.8005 12.5262 7.01113 12.7368 7.25644 12.9007C7.50577 13.0673 7.82767 13.1697 8.3593 13.2238C8.8996 13.2787 9.59683 13.2794 10.5785 13.2794C11.5602 13.2794 12.2574 13.2787 12.7977 13.2238C13.3294 13.1697 13.6513 13.0673 13.9006 12.9007C14.1459 12.7368 14.3565 12.5262 14.5205 12.2809C14.687 12.0315 14.7894 11.7097 14.8435 11.178C14.8985 10.6377 14.8991 9.94049 14.8991 8.9588V7.23058C14.8991 6.89004 14.898 6.6868 14.8784 6.54113C14.8694 6.47438 14.8589 6.44094 14.8527 6.42589C14.8512 6.4224 14.8501 6.42011 14.8494 6.41877L14.8485 6.41709L14.8468 6.41614C14.8454 6.41544 14.8431 6.41432 14.8397 6.41289C14.8246 6.40669 14.7912 6.39612 14.7244 6.38715C14.5788 6.36756 14.3755 6.36646 14.035 6.36646L13.3127 6.36646C13.0135 6.3665 12.7392 6.36653 12.5161 6.33653C12.2703 6.30349 12.0106 6.22576 11.797 6.01213C11.5833 5.79851 11.5056 5.53877 11.4726 5.29303C11.4426 5.06987 11.4426 4.79555 11.4426 4.49635L11.4426 3.63586C11.4426 3.3651 11.4419 3.20367 11.4291 3.08576C11.4216 3.01639 11.4121 2.98798 11.4085 2.97974C11.3985 2.96619 11.3864 2.95419 11.3729 2.94411C11.3647 2.94056 11.3362 2.93101 11.2669 2.92349C11.1587 2.91177 11.0139 2.9102 10.7816 2.91002ZM11.815 14.31C11.4526 14.3163 11.0516 14.3163 10.6073 14.3163H10.5498C9.60325 14.3163 8.85326 14.3163 8.25436 14.2554C7.64073 14.193 7.12846 14.0623 6.68035 13.7629C6.32181 13.5234 6.01397 13.2155 5.7744 12.857C5.47498 12.4089 5.34434 11.8966 5.28192 11.283C5.221 10.6841 5.221 9.93408 5.22101 8.98756V7.33808C5.221 6.54919 5.221 5.88817 5.25382 5.33301L5.10488 5.37292C3.90634 5.69406 3.19508 6.92601 3.51622 8.12455L5.03704 13.8003C5.35818 14.9988 6.59013 15.7101 7.78867 15.389L11.7951 14.3154C11.8017 14.3137 11.8083 14.3119 11.815 14.31ZM14.6157 5.20976C14.6398 5.25309 14.6624 5.29718 14.6836 5.34195C14.4989 5.32947 14.2893 5.3295 14.0659 5.32952L13.3437 5.32952C13.0031 5.32952 12.7999 5.32842 12.6542 5.30884C12.5875 5.29986 12.5541 5.28929 12.539 5.2831C12.5355 5.28166 12.5332 5.28055 12.5319 5.27985L12.5302 5.2789L12.5292 5.27721C12.5285 5.27588 12.5274 5.27359 12.526 5.2701C12.5198 5.25504 12.5092 5.22161 12.5003 5.15486C12.4807 5.00919 12.4796 4.80595 12.4796 4.46541L12.4796 3.61146C12.4796 3.43738 12.4796 3.27374 12.472 3.12778C12.5151 3.14828 12.5576 3.17017 12.5993 3.19341C12.859 3.33786 13.0837 3.5561 13.6684 4.14073C14.253 4.72536 14.4712 4.95014 14.6157 5.20976Z" fill="white"/>
</svg>
