<svg width="19" height="19" viewBox="0 0 19 19" fill="none" xmlns="http://www.w3.org/2000/svg">
<path d="M2.09497 4.36191C2.09497 3.52183 2.09497 3.10179 2.25846 2.78093C2.40227 2.49868 2.63174 2.26921 2.91399 2.12541C3.23485 1.96191 3.6549 1.96191 4.49497 1.96191H13.945C14.785 1.96191 15.2051 1.96191 15.526 2.12541C15.8082 2.26921 16.0377 2.49868 16.1815 2.78093C16.345 3.10179 16.345 3.52184 16.345 4.36191V13.8119C16.345 14.652 16.345 15.0721 16.1815 15.3929C16.0377 15.6751 15.8082 15.9046 15.526 16.0484C15.2051 16.2119 14.785 16.2119 13.945 16.2119H4.49497C3.65489 16.2119 3.23485 16.2119 2.91399 16.0484C2.63174 15.9046 2.40227 15.6751 2.25846 15.3929C2.09497 15.0721 2.09497 14.652 2.09497 13.8119V4.36191Z" stroke="#7A7978" stroke-linecap="round"/>
<path d="M9.59497 11.359C9.59497 12.9778 7.9902 14.1149 7.29012 14.534C7.09172 14.6527 6.84822 14.6527 6.64982 14.534C5.94978 14.1149 4.34497 12.9778 4.34497 11.359C4.34497 9.77076 5.61687 8.71191 6.96997 8.71191C8.37 8.71191 9.59497 9.77076 9.59497 11.359Z" stroke="#7A7978"/>
<path d="M14.095 16.2119L9.59497 4.96191" stroke="#7A7978"/>
<path d="M16.345 3.46191L2.09497 6.46191" stroke="#7A7978"/>
<path d="M6.96997 12.0869C7.38418 12.0869 7.71997 11.7511 7.71997 11.3369C7.71997 10.9227 7.38418 10.5869 6.96997 10.5869C6.55576 10.5869 6.21997 10.9227 6.21997 11.3369C6.21997 11.7511 6.55576 12.0869 6.96997 12.0869Z" fill="#7A7978"/>
</svg>
