<svg width="19" height="19" viewBox="0 0 19 19" fill="none" xmlns="http://www.w3.org/2000/svg">
<path d="M6.21997 9.17578L6.21997 6.17578C6.21997 4.51893 7.56312 3.17578 9.21997 3.17578V3.17578C10.8768 3.17578 12.22 4.51893 12.22 6.17578L12.22 9.17578" stroke="#848382" stroke-linecap="round"/>
<path d="M2.91432 10.5936C3.05939 8.8527 3.13193 7.98225 3.70602 7.45402C4.2801 6.92578 5.15357 6.92578 6.9005 6.92578H11.5394C13.2864 6.92578 14.1598 6.92578 14.7339 7.45402C15.308 7.98225 15.3805 8.8527 15.5256 10.5936L15.7895 13.7597C15.8739 14.7732 15.9162 15.28 15.6191 15.6029C15.322 15.9258 14.8134 15.9258 13.7964 15.9258H4.64357C3.62652 15.9258 3.11799 15.9258 2.82089 15.6029C2.52379 15.28 2.56602 14.7732 2.65048 13.7597L2.91432 10.5936Z" stroke="#848382"/>
</svg>
