<svg width="19" height="19" viewBox="0 0 19 19" fill="none" xmlns="http://www.w3.org/2000/svg">
<path d="M3.10895 3.68311H4.27781C4.7996 3.68311 5.06049 3.68311 5.25691 3.82468C5.45333 3.96625 5.53583 4.21375 5.70084 4.70876L6.10895 5.93311" stroke="#7A7978" stroke-linecap="round"/>
<path d="M13.6089 13.4331H6.52211C6.41246 13.4331 6.35764 13.4331 6.31605 13.4285C5.87536 13.3791 5.57347 12.9602 5.66602 12.5266C5.67475 12.4856 5.69209 12.4337 5.72676 12.3296C5.76526 12.2141 5.7845 12.1564 5.80577 12.1055C6.02348 11.5838 6.51601 11.2287 7.07979 11.1872C7.13485 11.1831 7.19572 11.1831 7.31746 11.1831H11.3589" stroke="#7A7978" stroke-linecap="round" stroke-linejoin="round"/>
<path d="M11.118 11.1831H8.83718C7.87775 11.1831 7.39804 11.1831 7.02233 10.9354C6.64663 10.6877 6.45767 10.2467 6.07973 9.36488L5.95311 9.06946C5.346 7.65281 5.04243 6.9445 5.37589 6.4388C5.70934 5.93311 6.47996 5.93311 8.02118 5.93311H11.9819C13.7061 5.93311 14.5682 5.93311 14.8934 6.49344C15.2186 7.05377 14.7908 7.80232 13.9354 9.29941L13.7228 9.67156C13.3013 10.409 13.0906 10.7778 12.7414 10.9805C12.3922 11.1831 11.9675 11.1831 11.118 11.1831Z" stroke="#7A7978" stroke-linecap="round"/>
<path d="M13.2339 16.0581C13.6482 16.0581 13.9839 15.7223 13.9839 15.3081C13.9839 14.8939 13.6482 14.5581 13.2339 14.5581C12.8197 14.5581 12.4839 14.8939 12.4839 15.3081C12.4839 15.7223 12.8197 16.0581 13.2339 16.0581Z" fill="#7A7978"/>
<path d="M7.23395 16.0581C7.64816 16.0581 7.98395 15.7223 7.98395 15.3081C7.98395 14.8939 7.64816 14.5581 7.23395 14.5581C6.81973 14.5581 6.48395 14.8939 6.48395 15.3081C6.48395 15.7223 6.81973 16.0581 7.23395 16.0581Z" fill="#7A7978"/>
</svg>
