<svg width="19" height="19" viewBox="0 0 19 19" fill="none" xmlns="http://www.w3.org/2000/svg">
<path d="M9.21997 8.05078C10.2555 8.05078 11.095 7.21132 11.095 6.17578C11.095 5.14025 10.2555 4.30078 9.21997 4.30078C8.18444 4.30078 7.34497 5.14025 7.34497 6.17578C7.34497 7.21132 8.18444 8.05078 9.21997 8.05078Z" stroke="#7A7978" stroke-linecap="round"/>
<path d="M10.5459 5.05078C10.6942 4.79385 10.9155 4.58669 11.1815 4.45547C11.4476 4.32426 11.7466 4.27489 12.0408 4.31361C12.3349 4.35234 12.6109 4.47741 12.834 4.67302C13.057 4.86863 13.2171 5.12599 13.2939 5.41255C13.3706 5.69912 13.3607 6.00202 13.2654 6.28294C13.17 6.56387 12.9934 6.81021 12.7581 6.99081C12.5227 7.17141 12.2391 7.27817 11.9431 7.29757C11.647 7.31697 11.3519 7.24815 11.095 7.09982" stroke="#7A7978"/>
<path d="M7.89404 5.05078C7.74569 4.79385 7.52448 4.58669 7.2584 4.45547C6.99233 4.32426 6.69332 4.27489 6.39918 4.31361C6.10505 4.35234 5.829 4.47741 5.60595 4.67302C5.3829 4.86863 5.22287 5.12599 5.14608 5.41255C5.0693 5.69912 5.07921 6.00202 5.17458 6.28294C5.26994 6.56387 5.44647 6.81021 5.68183 6.99081C5.9172 7.17141 6.20083 7.27817 6.49686 7.29757C6.7929 7.31697 7.08804 7.24815 7.34497 7.09982" stroke="#7A7978"/>
<path d="M9.21995 9.55078C12.2801 9.55078 13.0701 12.0274 13.274 13.306C13.3393 13.7151 13.0092 14.0508 12.595 14.0508H5.84495C5.43074 14.0508 5.10068 13.7151 5.16591 13.306C5.36982 12.0274 6.15977 9.55078 9.21995 9.55078Z" stroke="#7A7978" stroke-linecap="round"/>
<path d="M10.0353 9.61521L9.75841 9.36238L9.29303 9.87201L9.97381 9.98511L10.0353 9.61521ZM13.106 12.5508L12.7457 12.655L12.8241 12.9258H13.106V12.5508ZM11.845 9.17578C12.6158 9.17578 13.1571 9.55281 13.5537 10.081C13.9583 10.6198 14.1958 11.2987 14.3286 11.8291L15.0562 11.6469C14.9128 11.0744 14.6447 10.2848 14.1535 9.63066C13.6544 8.96601 12.9101 8.42578 11.845 8.42578V9.17578ZM10.3122 9.86803C10.6875 9.45703 11.178 9.17578 11.845 9.17578V8.42578C10.9321 8.42578 10.2502 8.82373 9.75841 9.36238L10.3122 9.86803ZM9.97381 9.98511C11.6992 10.2718 12.4292 11.5609 12.7457 12.655L13.4662 12.4465C13.1129 11.2252 12.2342 9.60051 10.0968 9.24531L9.97381 9.98511ZM14.0162 12.1758H13.106V12.9258H14.0162V12.1758ZM14.3286 11.8291C14.369 11.9902 14.2506 12.1758 14.0162 12.1758V12.9258C14.6693 12.9258 15.2314 12.3466 15.0562 11.6469L14.3286 11.8291Z" fill="#7A7978"/>
<path d="M8.40466 9.61521L8.46616 9.98511L9.14693 9.87201L8.68156 9.36238L8.40466 9.61521ZM5.33399 12.5508V12.9258H5.61588L5.69422 12.655L5.33399 12.5508ZM6.59498 9.17578C7.26197 9.17578 7.75246 9.45703 8.12768 9.86803L8.68156 9.36238C8.18978 8.82373 7.50791 8.42578 6.59498 8.42578V9.17578ZM4.11132 11.8291C4.24414 11.2987 4.48169 10.6198 4.88624 10.081C5.28284 9.55281 5.82418 9.17578 6.59498 9.17578V8.42578C5.52983 8.42578 4.78556 8.96601 4.28648 9.63066C3.79533 10.2848 3.52715 11.0744 3.38379 11.6469L4.11132 11.8291ZM4.42372 12.1758C4.18934 12.1758 4.07097 11.9902 4.11132 11.8291L3.38379 11.6469C3.20856 12.3466 3.77066 12.9258 4.42372 12.9258V12.1758ZM5.33399 12.1758H4.42372V12.9258H5.33399V12.1758ZM5.69422 12.655C6.01076 11.5609 6.74075 10.2718 8.46616 9.98511L8.34316 9.24531C6.20574 9.60051 5.32711 11.2252 4.97377 12.4465L5.69422 12.655Z" fill="#7A7978"/>
</svg>
