<svg width="19" height="19" viewBox="0 0 19 19" fill="none" xmlns="http://www.w3.org/2000/svg">
<path d="M6.91199 14.6962C7.8241 15.2228 8.85877 15.5 9.91199 15.5C10.9652 15.5 11.9999 15.2228 12.912 14.6962C13.8241 14.1695 14.5815 13.4121 15.1081 12.5C15.6347 11.5879 15.912 10.5532 15.912 9.5C15.912 8.44678 15.6347 7.41212 15.1081 6.5C14.5815 5.58788 13.8241 4.83046 12.912 4.30385C11.9999 3.77724 10.9652 3.5 9.91199 3.5C8.85877 3.5 7.8241 3.77724 6.91199 4.30385" stroke="white"/>
<path d="M2.41199 9.5L2.02155 9.18765L1.77167 9.5L2.02155 9.81235L2.41199 9.5ZM9.16199 10C9.43813 10 9.66199 9.77614 9.66199 9.5C9.66199 9.22386 9.43813 9 9.16199 9V10ZM5.02155 5.43765L2.02155 9.18765L2.80242 9.81235L5.80242 6.06235L5.02155 5.43765ZM2.02155 9.81235L5.02155 13.5623L5.80242 12.9377L2.80242 9.18765L2.02155 9.81235ZM2.41199 10H9.16199V9H2.41199V10Z" fill="white"/>
</svg>
