<svg width="19" height="19" viewBox="0 0 19 19" fill="none" xmlns="http://www.w3.org/2000/svg">
<path d="M5.83065 7.47676H5.93567M9.93398 7.47676H10.039M13.9311 7.47676H14.0361M9.48398 11.5268H4.33398C3.45032 11.5268 2.73398 10.8104 2.73398 9.92676V5.02676C2.73398 4.1431 3.45032 3.42676 4.33398 3.42676H15.534C16.4176 3.42676 17.134 4.1431 17.134 5.02676V7.47676M12.4924 10.6981L13.5349 10.1768C14.295 9.79674 15.1897 9.79674 15.9498 10.1768L16.9924 10.6981C16.9924 10.6981 16.9924 12.3406 16.9924 13.2068C16.9924 14.0731 16.1916 14.6578 14.7424 15.5731C13.2931 14.6578 12.4924 13.8856 12.4924 13.2068V10.6981Z" stroke="black" stroke-linecap="round" stroke-linejoin="round"/>
</svg>
