<svg width="19" height="19" viewBox="0 0 19 19" fill="none" xmlns="http://www.w3.org/2000/svg">
<path d="M4.48398 14.8998C4.82986 14.5124 6.44976 12.7298 6.92448 12.7298H11.9438C12.6317 12.7298 14.036 14.2075 14.384 14.7284M16.634 9.4998C16.634 13.4763 13.4104 16.6998 9.43398 16.6998C5.45753 16.6998 2.23398 13.4763 2.23398 9.4998C2.23398 5.52335 5.45753 2.2998 9.43398 2.2998C13.4104 2.2998 16.634 5.52335 16.634 9.4998ZM12.0131 7.04577C12.0131 5.67214 10.8535 4.5498 9.43419 4.5498C8.01491 4.5498 6.85528 5.67214 6.85528 7.04577C6.85528 8.41941 8.01491 9.54174 9.43419 9.54174C10.8535 9.54174 12.0131 8.41941 12.0131 7.04577Z" stroke="black"/>
</svg>
