<svg width="25" height="25" viewBox="0 0 25 25" fill="none" xmlns="http://www.w3.org/2000/svg">
<path d="M10.3286 7.1416H13.5546M10.3286 10.8285H16.3198M10.3286 14.5154H16.3198" stroke="#242220" stroke-opacity="0.56" stroke-width="0.9132" stroke-linecap="round" stroke-linejoin="round"/>
<path fill-rule="evenodd" clip-rule="evenodd" d="M21.3075 15.3097C21.3887 14.5112 21.3887 13.5112 21.3887 12.2492L21.3887 9.64679C21.3889 8.68086 21.3891 8.05793 21.221 7.46838C21.1289 7.14517 20.9998 6.83364 20.8364 6.53995C20.5384 6.00424 20.0978 5.56386 19.4147 4.88099L19.2709 4.73725C18.5881 4.0541 18.1477 3.61354 17.612 3.31549C17.3183 3.15209 17.0068 3.02305 16.6835 2.93092C16.094 2.76287 15.4711 2.763 14.5051 2.7632L13.3236 2.76321V2.76521C12.4615 2.77038 11.7359 2.7889 11.1235 2.85525C10.2523 2.94964 9.52883 3.14741 8.90677 3.59937C8.53509 3.86941 8.20823 4.19628 7.93818 4.56796C7.65037 4.9641 7.46564 5.40136 7.34504 5.89171L6.58934 6.0942C4.25373 6.72003 2.86768 9.12075 3.4935 11.4564L5.52126 19.024C6.14708 21.3596 8.5478 22.7457 10.8834 22.1199L16.2253 20.6885C17.2455 20.4151 18.0846 19.8031 18.6539 19.0058C18.9339 18.9082 19.1957 18.7815 19.4429 18.6163C19.921 18.2969 20.3314 17.8865 20.6509 17.4084C21.0501 16.8109 21.2243 16.1279 21.3075 15.3097ZM14.5162 4.14582L14.4035 4.14579C13.0194 4.14581 12.0342 4.14726 11.2724 4.22979C10.5189 4.31143 10.0665 4.46572 9.71944 4.7179C9.46513 4.90267 9.24148 5.12631 9.05672 5.38062C8.80454 5.72772 8.65025 6.18006 8.5686 6.93363C8.48556 7.70014 8.48461 8.69302 8.48461 10.0909V12.2109C8.48461 13.5198 8.48544 14.4494 8.55873 15.1698C8.63084 15.8787 8.76733 16.3078 8.98946 16.6403C9.20801 16.9674 9.48885 17.2482 9.81594 17.4668C10.1484 17.6889 10.5776 17.8254 11.2864 17.8975C12.0068 17.9708 12.9365 17.9716 14.2454 17.9716C15.5543 17.9716 16.4839 17.9708 17.2043 17.8975C17.9132 17.8254 18.3424 17.6889 18.6748 17.4668C19.0019 17.2482 19.2827 16.9674 19.5013 16.6403C19.7234 16.3078 19.8599 15.8787 19.932 15.1698C20.0053 14.4494 20.0061 13.5198 20.0061 12.2109V9.90656C20.0061 9.45251 20.0047 9.18152 19.9785 8.98729C19.9666 8.89829 19.9525 8.85371 19.9442 8.83364C19.9423 8.82899 19.9408 8.82593 19.9399 8.82415L19.9386 8.82191L19.9364 8.82064C19.9346 8.81971 19.9315 8.81822 19.9269 8.8163C19.9068 8.80804 19.8622 8.79395 19.7732 8.78198C19.579 8.75587 19.308 8.7544 18.854 8.7544L17.891 8.75441C17.4921 8.75445 17.1263 8.7545 16.8288 8.71449C16.5011 8.67044 16.1548 8.5668 15.87 8.28196C15.5851 7.99713 15.4815 7.65081 15.4374 7.32316C15.3974 7.02562 15.3975 6.65985 15.3975 6.26092L15.3975 5.1136C15.3975 4.75258 15.3966 4.53735 15.3795 4.38013C15.3695 4.28765 15.3568 4.24976 15.352 4.23878C15.3386 4.22071 15.3226 4.2047 15.3045 4.19127C15.2936 4.18654 15.2557 4.1738 15.1632 4.16378C15.0189 4.14815 14.8259 4.14606 14.5162 4.14582ZM15.894 19.3458C15.4108 19.3542 14.8761 19.3542 14.2837 19.3542H14.2071C12.945 19.3542 11.945 19.3542 11.1465 19.273C10.3283 19.1898 9.64529 19.0156 9.04782 18.6163C8.56976 18.2969 8.15931 17.8865 7.83988 17.4084C7.44066 16.8109 7.26647 16.1279 7.18324 15.3097C7.10201 14.5112 7.10202 13.5112 7.10202 12.2492V10.0499C7.10202 8.99804 7.10201 8.11668 7.14577 7.37646L6.94718 7.42967C5.34913 7.85787 4.40078 9.50047 4.82898 11.0985L6.85673 18.6662C7.28493 20.2642 8.92752 21.2126 10.5256 20.7844L15.8675 19.353C15.8763 19.3507 15.8851 19.3483 15.894 19.3458ZM19.6283 7.21214C19.6604 7.26991 19.6906 7.3287 19.7188 7.38839C19.4725 7.37175 19.1931 7.37178 18.8952 7.37182L17.9323 7.37182C17.4782 7.37182 17.2072 7.37035 17.013 7.34424C16.924 7.33227 16.8794 7.31818 16.8593 7.30992C16.8547 7.308 16.8516 7.30651 16.8499 7.30558L16.8476 7.30431L16.8463 7.30207C16.8454 7.30029 16.8439 7.29724 16.842 7.29258C16.8337 7.27251 16.8197 7.22793 16.8077 7.13893C16.7816 6.94471 16.7801 6.67372 16.7801 6.21967L16.7801 5.08107C16.7801 4.84895 16.7801 4.63078 16.77 4.43616C16.8275 4.4635 16.8841 4.49268 16.9398 4.52367C17.286 4.71626 17.5857 5.00725 18.3652 5.78676C19.1447 6.56627 19.4357 6.86597 19.6283 7.21214Z" fill="#242220" fill-opacity="0.56"/>
</svg>
